<svg width="10" height="9" viewBox="0 0 10 9" fill="none" xmlns="http://www.w3.org/2000/svg">
<path fill-rule="evenodd" clip-rule="evenodd" d="M4.16591 0.202881C3.39904 0.202881 2.77736 0.824559 2.77736 1.59144C2.77736 1.78887 2.81856 1.97668 2.89284 2.14673H1.11324C1.11324 2.14673 0.605017 2.10019 0.280104 2.42458C-0.0448097 2.74897 0.00239256 3.25758 0.00239256 3.25758V4.09071C0.00239256 4.09071 0.00239249 4.64613 0.280104 4.92385C0.557815 5.20156 1.11324 5.20156 1.11324 5.20156H1.94452V4.78499C1.94452 4.55492 2.13103 4.36842 2.36109 4.36842C2.59116 4.36842 2.77766 4.55492 2.77766 4.78499V5.20156H7.22092V4.78499C7.22092 4.55492 7.40742 4.36842 7.63748 4.36842C7.86755 4.36842 8.05405 4.55492 8.05405 4.78499V5.20156H8.88915C8.88915 5.20156 9.44458 5.20156 9.72229 4.92385C10 4.64613 10 4.09071 10 4.09071V3.25758C10 3.25758 10 2.70215 9.72229 2.42444C9.44458 2.14673 8.88915 2.14673 8.88915 2.14673H7.10525C7.17953 1.97668 7.22074 1.78887 7.22074 1.59144C7.22074 0.824559 6.59906 0.202881 5.83218 0.202881H4.16591ZM3.62021 2.14673H6.37767C6.38414 2.10142 6.3875 2.0551 6.3875 2.008C6.3875 1.47119 5.95232 1.03601 5.41551 1.03601H4.58237C4.04556 1.03601 3.61038 1.47119 3.61038 2.008C3.61038 2.0551 3.61373 2.10142 3.62021 2.14673ZM2.77748 5.75693H7.22074V6.17373C7.22074 6.4038 7.40724 6.5903 7.6373 6.5903C7.86737 6.5903 8.05387 6.4038 8.05387 6.17373V5.75693H8.8862C8.8862 5.75693 9.30333 5.75693 9.58104 5.61831C9.85875 5.47969 9.99689 5.3406 9.99689 5.3406V7.70059C9.99689 7.70059 10.0257 8.22695 9.71901 8.53366C9.4123 8.84036 8.8862 8.81125 8.8862 8.81125H1.11143C1.11143 8.81125 0.584933 8.84035 0.278227 8.53365C-0.0284792 8.22695 0.000749022 7.70059 0.000749022 7.70059L0 5.3406C0 5.3406 0.138856 5.47946 0.416567 5.61831C0.694278 5.75717 1.11122 5.75693 1.11122 5.75693H1.94435V6.17373C1.94435 6.4038 2.13085 6.5903 2.36091 6.5903C2.59098 6.5903 2.77748 6.4038 2.77748 6.17373V5.75693Z" fill="#FF8CA5"/>
</svg>
