<svg width="7" height="12" viewBox="0 0 7 12" fill="none" xmlns="http://www.w3.org/2000/svg">
<path d="M4.08691 7.75415H2.21924C2.22412 7.3147 2.2583 6.93628 2.32178 6.6189C2.39014 6.29663 2.50488 6.0061 2.66602 5.74731C2.83203 5.48853 3.05176 5.23218 3.3252 4.97827C3.55469 4.77319 3.75488 4.57788 3.92578 4.39233C4.09668 4.20679 4.23096 4.01636 4.32861 3.82104C4.42627 3.62085 4.4751 3.39868 4.4751 3.15454C4.4751 2.87134 4.43115 2.63696 4.34326 2.45142C4.26025 2.26099 4.1333 2.11694 3.9624 2.01929C3.79639 1.92163 3.58643 1.8728 3.33252 1.8728C3.12256 1.8728 2.92725 1.91919 2.74658 2.01196C2.56592 2.09985 2.41699 2.23657 2.2998 2.42212C2.1875 2.60767 2.12891 2.85181 2.12402 3.15454H0C0.0146484 2.4856 0.168457 1.93384 0.461426 1.49927C0.759277 1.05981 1.15723 0.735107 1.65527 0.525146C2.15332 0.310303 2.7124 0.202881 3.33252 0.202881C4.01611 0.202881 4.60205 0.315186 5.09033 0.539795C5.57861 0.759521 5.95215 1.08423 6.21094 1.51392C6.46973 1.93872 6.59912 2.4563 6.59912 3.06665C6.59912 3.49146 6.51611 3.86987 6.3501 4.2019C6.18408 4.52905 5.9668 4.83423 5.69824 5.11743C5.42969 5.40063 5.13428 5.6936 4.81201 5.99634C4.53369 6.24536 4.34326 6.50659 4.24072 6.78003C4.14307 7.05347 4.0918 7.37817 4.08691 7.75415ZM1.99951 10.0173C1.99951 9.70483 2.10693 9.44604 2.32178 9.24097C2.53662 9.03101 2.82471 8.92603 3.18604 8.92603C3.54248 8.92603 3.82812 9.03101 4.04297 9.24097C4.2627 9.44604 4.37256 9.70483 4.37256 10.0173C4.37256 10.3201 4.2627 10.5764 4.04297 10.7864C3.82812 10.9963 3.54248 11.1013 3.18604 11.1013C2.82471 11.1013 2.53662 10.9963 2.32178 10.7864C2.10693 10.5764 1.99951 10.3201 1.99951 10.0173Z" fill="#FF8CA5"/>
</svg>
