<svg width="8" height="8" viewBox="0 0 8 8" fill="none" xmlns="http://www.w3.org/2000/svg">
<path d="M3.52396 0.913478C3.67364 0.452823 4.32534 0.452821 4.47502 0.913476L5.00574 2.54688C5.07268 2.75289 5.26466 2.89237 5.48127 2.89237H7.19873C7.68309 2.89237 7.88448 3.51218 7.49262 3.79688L6.10317 4.80637C5.92793 4.9337 5.8546 5.15938 5.92153 5.36539L6.45226 6.99879C6.60193 7.45944 6.07469 7.84251 5.68284 7.55781L4.29338 6.54831C4.11814 6.42099 3.88084 6.42099 3.7056 6.54831L2.31615 7.55781C1.92429 7.84251 1.39705 7.45945 1.54672 6.99879L2.07745 5.36539C2.14438 5.15938 2.07106 4.9337 1.89581 4.80637L0.506361 3.79688C0.114504 3.51218 0.31589 2.89237 0.800252 2.89237H2.51771C2.73432 2.89237 2.9263 2.75289 2.99324 2.54688L3.52396 0.913478Z" fill="#FF8CA5"/>
</svg>
