<svg width="10" height="11" viewBox="0 0 10 11" fill="none" xmlns="http://www.w3.org/2000/svg">
<path fill-rule="evenodd" clip-rule="evenodd" d="M5.14969 1.05574C4.9627 0.872148 4.71113 0.769287 4.44908 0.769287H1.09963C0.531097 0.769287 0.0769431 1.24265 0.100485 1.8107L0.235376 5.06547C0.245896 5.3193 0.352633 5.55962 0.533912 5.73761L4.95266 10.0762C5.34674 10.4631 5.97988 10.4574 6.36681 10.0633L9.57179 6.79909C9.95873 6.40501 9.95293 5.77187 9.55885 5.38494L5.14969 1.05574ZM2.69365 4.07044C3.13959 4.07044 3.5011 3.70894 3.5011 3.26299C3.5011 2.81705 3.13959 2.45554 2.69365 2.45554C2.2477 2.45554 1.8862 2.81705 1.8862 3.26299C1.8862 3.70894 2.2477 4.07044 2.69365 4.07044Z" fill="#FF8CA5"/>
</svg>
