<svg width="16" height="16" viewBox="0 0 16 16" fill="none" xmlns="http://www.w3.org/2000/svg">
<path d="M6.94515 1.59532C7.25268 0.691482 8.53101 0.69148 8.83855 1.59532L10.0123 5.04494C10.1502 5.45026 10.5308 5.72282 10.959 5.72282H14.6556C15.6355 5.72282 16.0307 6.98588 15.2257 7.54444L12.3156 9.56348C11.9488 9.81793 11.7951 10.2846 11.9389 10.7072L13.069 14.0285C13.3797 14.9417 12.3448 15.7221 11.5522 15.1722L8.46189 13.0281C8.11907 12.7903 7.66462 12.7903 7.32181 13.0281L4.23146 15.1722C3.43887 15.7221 2.40398 14.9418 2.71472 14.0285L3.8448 10.7072C3.98858 10.2846 3.83488 9.81793 3.46814 9.56348L0.558022 7.54444C-0.247042 6.98588 0.148206 5.72282 1.12806 5.72282H4.82471C5.25285 5.72282 5.63349 5.45026 5.77141 5.04494L6.94515 1.59532Z" fill="black"/>
</svg>
